<?xml version="1.0" standalone="no"?><!DOCTYPE svg PUBLIC "-//W3C//DTD SVG 1.1//EN" "http://www.w3.org/Graphics/SVG/1.1/DTD/svg11.dtd"><svg t="1761225334564" class="icon" viewBox="0 0 1025 1024" version="1.1" xmlns="http://www.w3.org/2000/svg" p-id="64553" xmlns:xlink="http://www.w3.org/1999/xlink" width="200.1953125" height="200"><path d="M154.572 718.619c7.86 6.114 16.255 12.459 25.437 18.859a813.284 813.284 0 0 0 12.325 8.286l0.59 0.38c0.153-0.178 114.346-131.882 318.984-131.882 208.276 0 328.658 127.726 328.733 127.807l0.115-0.077c1.145-0.797 11.684-8.155 20.54-14.664a699.66 699.66 0 0 0 10.272-7.894c6.166-5.225 14.33-11.608 21.815-17.32 6.883-5.433 13.471-10.475 20.015-14.964l0.069-0.051S866.89 460.04 716.583 460.04c71.939-144.582 79.923-205.628 102.312-205.628s67.173 51.407 102.363 51.407c102.311 0 102.311-102.814 102.311-102.814S870.103 48.782 818.895 48.782c-49.55 0-204.676 257.037-204.676 257.037H307.231s-102.412-51.407-153.519-51.407c-60.995 0-51.157 54.62-51.157 102.814 0 50.203 125.054 102.814 153.52 102.814-143.229 0-150.362 222.243-150.362 222.243l0.322 0.22c8.72 5.324 17.355 11.707 26.449 18.767 8.19 6.026 16.5 12.402 22.088 17.349zM256.941 512c50.453 0 51.157-51.408 51.157-51.408s-153.52-56.375-153.52-102.814c0-30.523 3.214-51.407 51.207-51.407 42.02 0 102.313 51.407 102.313 51.407h306.988c47.992 0 155.124-257.084 204.676-257.084 47.994 0 153.519 102.863 153.519 102.863s1.606 51.407-51.158 51.407c-25.603 0-55.973-51.407-102.361-51.407-46.34 0-153.47 257.035-153.47 257.035S667.897 512 717.45 512c99.902 0 153.519 205.63 153.519 205.63S716.646 563.406 512.772 563.406c-156.782 0-297.7 72.042-358.195 154.221C154.578 611.954 207.642 512 256.941 512zM973.28 666.223c-23.298 0-41.408 8.249-59.883 20.927-0.827 0.604-9.78 7.153-20.015 14.964-6.893 5.441-14.085 11.272-21.815 17.32a0.225 0.225 0 0 0-0.024 0.02c-2.253 1.91-6.062 4.798-10.248 7.874-6.414 4.828-13.224 9.743-20.54 14.664l-0.113 0.08-0.002-0.003c-57.962 38.973-147.905 78.374-327.868 78.374-172.172 0-261.55-36.704-319.85-74.3l-0.004 0.005-0.585-0.384a432.49 432.49 0 0 1-12.326-8.286c-8.707-5.968-19.625-13.716-25.43-18.854l-0.006-0.005c-7.804-6.07-15.082-11.91-22.087-17.349-12.346-9.084-24.398-17.363-26.45-18.767-16.395-10.01-33.102-16.28-53.77-16.28-64.309 0-51.155 51.406-51.155 51.406 0 104.722 203.72 257.037 511.662 257.037 306.334 0 511.663-153.117 511.663-257.037 0-21.888 2.712-51.406-51.154-51.406zM512.772 923.258c-403.778 0-460.506-205.63-460.506-205.63-10.543-26.956 27.008-24.246 51.156 0 24.198 24.25 103.818 154.221 409.35 154.221 307.138 0 331.789-76.355 409.35-154.22 31.479-31.628 51.158 0 51.158 0S921.62 923.257 512.772 923.257z" fill="" p-id="64554"></path></svg>
