<?xml version="1.0" standalone="no"?><!DOCTYPE svg PUBLIC "-//W3C//DTD SVG 1.1//EN" "http://www.w3.org/Graphics/SVG/1.1/DTD/svg11.dtd"><svg t="1761225069189" class="icon" viewBox="0 0 1024 1024" version="1.1" xmlns="http://www.w3.org/2000/svg" p-id="43035" xmlns:xlink="http://www.w3.org/1999/xlink" width="200" height="200"><path d="M930.4 1020H93.6c-5.6 0-11.2-3.2-14.4-8.8-2.4-4.8-2.4-11.2 0.8-16.8l66.4-100.8c3.2-4.8 8-7.2 13.6-7.2h703.2c5.6 0 10.4 2.4 13.6 7.2l66.4 100.8c3.2 4.8 3.2 11.2 0.8 16.8-2.4 5.6-8 8.8-13.6 8.8z m-807.2-32h776.8l-45.6-68.8H168.8l-45.6 68.8zM656.8 525.6c-2.4 0-4.8-0.8-7.2-1.6-8-4-11.2-13.6-7.2-21.6 10.4-20.8 20-40 20-60 0-8.8 7.2-16 15.2-16 8.8-0.8 16 6.4 16.8 15.2 0.8 18.4-3.2 36.8-12 53.6l-12 21.6c-2.4 5.6-8 8.8-13.6 8.8zM656 406.4c-4 0-8-1.6-11.2-4.8-4.8-4.8-11.2-9.6-19.2-15.2-7.2-4.8-9.6-14.4-5.6-21.6 4-7.2 13.6-10.4 21.6-6.4h0.8c9.6 4.8 18.4 12 25.6 20 5.6 6.4 5.6 16-0.8 22.4-3.2 4-7.2 5.6-11.2 5.6zM498.4 696.8h-3.2c-7.2-1.6-14.4-3.2-20.8-6.4-8-3.2-12-12.8-8.8-20.8 3.2-8 12.8-12 20.8-8.8 5.6 2.4 10.4 4 15.2 4.8 8.8 1.6 14.4 10.4 12 18.4-0.8 7.2-7.2 12.8-15.2 12.8z" fill="#303C42" p-id="43036"></path><path d="M516 698.4c-6.4 0-13.6-0.8-20-2.4-8.8-1.6-14.4-10.4-12-18.4 1.6-8.8 9.6-14.4 18.4-12.8 28.8 5.6 58.4-8.8 72-34.4l68.8-128c4-8 13.6-10.4 21.6-6.4 8 4 11.2 13.6 7.2 21.6l-2.4 4.8c-14.4 28.8-30.4 58.4-45.6 86.4l-9.6 16.8c-1.6 2.4-3.2 5.6-4 8-7.2 14.4-15.2 28.8-28 40.8-13.6 12-30.4 20.8-50.4 24h-16zM678.4 458.4c-8.8 0-15.2-6.4-16-15.2-0.8-16-7.2-31.2-18.4-42.4-5.6-6.4-5.6-16 0.8-22.4 6.4-6.4 16-6.4 22.4 0 13.6 13.6 22.4 28 25.6 45.6 0.8 5.6 1.6 12 1.6 18.4 0 8.8-7.2 16-16 16zM586.4 389.6c-2.4 0-4.8-0.8-7.2-1.6l-60.8-32.8c-4-2.4-6.4-5.6-8-9.6-1.6-4-0.8-8.8 1.6-12l78.4-145.6c2.4-4 5.6-6.4 9.6-8 4-1.6 8.8-0.8 12 1.6l60.8 32.8c4 2.4 6.4 5.6 8 9.6 1.6 4 0.8 8.8-1.6 12l-78.4 145.6c-3.2 5.6-8.8 8-14.4 8z m-39.2-55.2l32.8 17.6 63.2-117.6-32.8-17.6-63.2 117.6zM444.8 448c-2.4 0-4.8-0.8-7.2-1.6l-60.8-32.8c-4-2.4-6.4-5.6-8-9.6-1.6-4-0.8-8.8 0.8-12l35.2-66.4c4-8 13.6-10.4 21.6-6.4L488 352c8 4 10.4 13.6 6.4 21.6L459.2 440c-3.2 4.8-8.8 8-14.4 8z m-39.2-55.2l32.8 17.6 20-37.6-32.8-17.6-20 37.6zM599.2 160c-2.4 0-4.8-0.8-7.2-1.6l-60.8-32.8c-4-2.4-6.4-5.6-8-9.6-1.6-4-0.8-8.8 1.6-12l48.8-91.2c2.4-4 5.6-6.4 9.6-8 4-1.6 8.8-0.8 12 1.6l60.8 32c4 2.4 6.4 5.6 8 9.6s0.8 8.8-1.6 12l-48.8 91.2c-3.2 5.6-8.8 8.8-14.4 8.8z m-38.4-55.2l32.8 17.6 33.6-63.2-32.8-17.6-33.6 63.2z" fill="#303C42" p-id="43037"></path><path d="M505.6 395.2c-2.4 0-5.6-0.8-7.2-1.6l-111.2-60c-8-4-10.4-13.6-6.4-21.6l119.2-221.6c2.4-4 5.6-6.4 9.6-8 4-1.6 8.8-0.8 12 1.6L632 143.2c4 2.4 6.4 5.6 8 9.6 1.6 4 0.8 8.8-1.6 12L519.2 387.2c-2.4 4-5.6 6.4-9.6 8h-4zM416 312.8l41.6 22.4 41.6 22.4 104-193.6L520 119.2 416 312.8z" fill="#303C42" p-id="43038"></path><path d="M564.8 284c-2.4 0-4.8-0.8-7.2-1.6-5.6-3.2-8.8-8-8.8-14.4 0-2.4 0.8-4.8 1.6-7.2l39.2-72.8c4-8 13.6-10.4 21.6-6.4 5.6 3.2 8.8 8 8.8 14.4 0 2.4-0.8 4.8-1.6 7.2l-39.2 72.8c-3.2 5.6-8.8 8-14.4 8zM449.6 365.6c-2.4 0-4.8-0.8-7.2-1.6l-30.4-16c-5.6-3.2-8.8-8-8.8-14.4 0-2.4 0.8-4.8 1.6-7.2 4-8 13.6-10.4 21.6-6.4l30.4 16c5.6 3.2 8.8 8 8.8 14.4 0 2.4-0.8 4.8-1.6 7.2-3.2 4.8-8.8 8-14.4 8zM568.8 143.2c-2.4 0-4.8-0.8-7.2-1.6l-30.4-16c-5.6-3.2-8.8-8-8.8-14.4 0-2.4 0.8-4.8 1.6-7.2 4-8 13.6-10.4 21.6-6.4l30.4 16c5.6 3.2 8.8 8 8.8 14.4 0 2.4-0.8 4.8-1.6 7.2-3.2 5.6-8.8 8-14.4 8zM594.4 919.2h-144c-8.8 0-16-7.2-16-16V781.6c0-48.8 39.2-88 88-88 45.6 0 84 35.2 87.2 80.8V903.2c0.8 8.8-6.4 16-15.2 16z m-128-32h112V781.6v-4.8c-2.4-28.8-27.2-51.2-56-51.2-31.2 0-56 24.8-56 56v105.6zM480.8 691.2c-1.6 0-4 0-5.6-0.8-4-1.6-8-3.2-12.8-5.6-6.4-3.2-10.4-10.4-8.8-17.6 1.6-7.2 8-12.8 16-12.8h1.6c2.4 0 5.6 0.8 7.2 1.6l4 1.6c1.6 0.8 4 1.6 5.6 2.4 8 3.2 12 12.8 8.8 20.8-4 6.4-9.6 10.4-16 10.4z" fill="#303C42" p-id="43039"></path><path d="M450.4 799.2h-3.2c-25.6-4.8-51.2-13.6-74.4-24.8-4-1.6-7.2-5.6-8-9.6-1.6-4-0.8-8.8 0.8-12.8l48-89.6c2.4-4.8 8-8.8 14.4-8.8h41.6c2.4 0 4.8 0.8 7.2 1.6 3.2 1.6 7.2 3.2 10.4 4.8 4.8 2.4 10.4 4 15.2 4.8 8.8 1.6 16.8 2.4 24 0.8 13.6-2.4 25.6-8 34.4-16 8.8-8 15.2-20 21.6-32 1.6-2.4 3.2-5.6 4.8-8l9.6-16.8c15.2-28 31.2-56 44.8-84.8l2.4-4.8 12-22.4c5.6-11.2 8.8-24 8-36v-0.8c0-4 0-8-0.8-12-2.4-11.2-7.2-20-16.8-28.8-5.6-6.4-11.2-10.4-17.6-14.4L589.6 368c-8-4-10.4-13.6-6.4-21.6l57.6-107.2c2.4-4 5.6-6.4 9.6-8 4-0.8 8.8-0.8 12.8 1.6 143.2 84 192.8 264.8 114.4 411.2-38.4 71.2-101.6 123.2-178.4 147.2-4.8 1.6-9.6 0.8-13.6-1.6-4-2.4-6.4-7.2-7.2-12-2.4-28.8-27.2-51.2-56-51.2-31.2 0-56 24.8-56 56v1.6c0 4.8-2.4 9.6-5.6 12-3.2 2.4-6.4 3.2-10.4 3.2zM401.6 752c11.2 4.8 22.4 8.8 34.4 12 6.4-32 31.2-57.6 62.4-67.2-0.8 0-2.4 0-3.2-0.8-7.2-1.6-13.6-3.2-20.8-6.4-2.4-0.8-5.6-2.4-8.8-4h-28L401.6 752z m137.6-56.8c31.2 6.4 56.8 28.8 66.4 59.2 61.6-23.2 112-68 143.2-126.4C816 504 776 347.2 660.8 268.8l-41.6 77.6c7.2 4 15.2 8 22.4 12.8 9.6 4.8 18.4 12 25.6 20 12.8 12.8 21.6 28 24.8 44.8 0.8 5.6 1.6 11.2 1.6 17.6 0.8 18.4-3.2 36.8-12 52.8l-14.4 26.4c-14.4 28.8-30.4 58.4-45.6 86.4L612 624c-1.6 2.4-3.2 5.6-4 8-7.2 14.4-15.2 28.8-28 40.8-9.6 10.4-24 18.4-40.8 22.4z" fill="#303C42" p-id="43040"></path><path d="M504.8 686.4H217.6c-8.8 0-16-7.2-16-16v-61.6c0-8.8 7.2-16 16-16h287.2c8.8 0 16 7.2 16 16v61.6c0 8.8-7.2 16-16 16z m-271.2-32h255.2v-29.6H233.6v29.6z" fill="#303C42" p-id="43041"></path><path d="M624.8 690.4c-1.6 0-3.2 0-4-0.8-4-2.4-4.8-7.2-2.4-11.2l116.8-188c2.4-4 7.2-4.8 11.2-2.4 4 2.4 4.8 7.2 2.4 11.2L631.2 687.2c-1.6 2.4-4 3.2-6.4 3.2z" fill="#303C42" p-id="43042"></path><path d="M521.6 823.2c-21.6 0-39.2-17.6-39.2-39.2s17.6-39.2 39.2-39.2 39.2 17.6 39.2 39.2-17.6 39.2-39.2 39.2z m0-63.2c-12.8 0-23.2 10.4-23.2 23.2 0 12.8 10.4 23.2 23.2 23.2 12.8 0 23.2-10.4 23.2-23.2 0-12.8-10.4-23.2-23.2-23.2z" fill="#303C42" p-id="43043"></path></svg>