<svg width="49" height="49" viewBox="0 0 49 49" fill="none" xmlns="http://www.w3.org/2000/svg">
<path opacity="0.1" fill-rule="evenodd" clip-rule="evenodd" d="M24.3735 47.7154C37.2736 47.7154 47.7311 37.2578 47.7311 24.3578C47.7311 11.4577 37.2736 1.00012 24.3735 1.00012C11.4734 1.00012 1.01587 11.4577 1.01587 24.3578C1.01587 37.2578 11.4734 47.7154 24.3735 47.7154Z" stroke="#0A142F" stroke-width="2.00208"/>
<path d="M30.0159 18.2998H27.6403H27.0094C26.4663 18.2998 26.026 18.7401 26.026 19.2833V22.7337H30.0159L29.4315 26.5322H26.026V33.5H21.6384V26.5322H18.0159V22.7337H21.5916L21.6384 19.1281L21.6318 18.4735C21.6098 16.3011 23.3531 14.5222 25.5256 14.5002C25.5388 14.5001 25.5521 14.5 25.5653 14.5H30.0159V18.2998Z" fill="#333333" stroke="#333333" stroke-width="2" stroke-linejoin="round"/>
</svg>
