<svg width="49" height="49" viewBox="0 0 49 49" fill="none" xmlns="http://www.w3.org/2000/svg">
<path opacity="0.1" fill-rule="evenodd" clip-rule="evenodd" d="M24.3735 47.7153C37.2736 47.7153 47.7311 37.2577 47.7311 24.3576C47.7311 11.4576 37.2736 1 24.3735 1C11.4734 1 1.01587 11.4576 1.01587 24.3576C1.01587 37.2577 11.4734 47.7153 24.3735 47.7153Z" stroke="#0A142F" stroke-width="2.00208"/>
<path d="M22.6949 21.57C19.7506 21.4279 17.704 22.4777 16.5551 24.7192C14.8317 28.0815 16.256 33.5833 22.0053 33.5833C27.7546 33.5833 27.9209 28.0277 27.9209 27.4457C27.9209 27.0577 27.9209 24.8882 27.9209 20.9373C29.1506 21.7162 30.1874 22.185 31.0313 22.3439C31.8752 22.5027 32.4116 22.5731 32.6407 22.555V19.3172C31.8602 19.2231 31.1852 19.0437 30.6157 18.7791C29.7615 18.3822 28.0677 17.2806 28.0677 15.666C28.0689 15.6739 28.0689 15.2575 28.0677 14.4166H24.5087C24.4981 22.3247 24.4981 26.6677 24.5087 27.4457C24.5246 28.6128 23.6193 30.2453 21.7836 30.2453C19.948 30.2453 19.0426 28.6141 19.0426 27.562C19.0426 26.9179 19.2639 25.9843 20.1784 25.2929C20.7208 24.8829 21.4735 24.7192 22.6949 24.7192C22.6949 24.3414 22.6949 23.2917 22.6949 21.57Z" fill="#333333" stroke="#333333" stroke-width="2" stroke-linejoin="round"/>
</svg>
