<svg width="171" height="84" xmlns="http://www.w3.org/2000/svg" fill="none">
 <g>
  <title>Layer 1</title>
  <circle id="svg_1" fill="#7D9ED4" r="25.8297" cy="42.0265" cx="32.54544"/>
  <path id="svg_2" fill="#CFC9EF" d="m13.60384,8.62633l50.4344,44.73147l-36.9129,21.3117l-13.5215,-66.04317z"/>
  <path id="svg_3" fill="#FACAD5" d="m13.60324,8.62665l37.2044,33.02005l-27.2104,15.7099l-9.994,-48.72995z"/>
  <path id="svg_4" fill="#9B90DA" d="m64.17544,53.6068c1.2947,2.2425 -5.9189,8.8312 -16.1121,14.7162c-10.1933,5.8851 -19.5061,8.8379 -20.8008,6.5954c-1.2947,-2.2425 5.919,-8.8312 16.1122,-14.7162c10.1932,-5.8851 19.506,-8.8379 20.8007,-6.5954z"/>
  <path id="svg_5" fill="#F7AEBF" d="m50.89204,41.7512c0.9556,1.655 -4.3685,6.5179 -11.8916,10.8613c-7.5232,4.3435 -14.3965,6.5229 -15.3521,4.8678c-0.9555,-1.6551 4.3685,-6.5179 11.8917,-10.8614c7.5231,-4.3435 14.3965,-6.5228 15.352,-4.8677z"/>
  <path id="svg_6" fill="#F7AEBF" d="m50.89204,41.7512c0.9556,1.655 -4.3685,6.5179 -11.8916,10.8613c-7.5232,4.3435 -14.3965,6.5229 -15.3521,4.8678c-0.9555,-1.6551 4.3685,-6.5179 11.8917,-10.8614c7.5231,-4.3435 14.3965,-6.5228 15.352,-4.8677z"/>
  <path id="svg_7" fill="#FFEEE4" d="m13.69634,8.78304l26.6415,23.55056l-19.5669,11.297l-7.0746,-34.84756z"/>
  <path id="svg_8" fill="#E8ECDC" d="m13.53544,8.5249l16.9741,15.0952l-12.3884,7.1525l-4.5857,-22.2477z"/>
  <path id="svg_9" fill="#FDC9AC" d="m40.37814,32.4441c0.6854,1.1872 -3.1333,4.6751 -8.5294,7.7905c-5.3961,3.1154 -10.3261,4.6786 -11.0115,3.4915c-0.6854,-1.1872 3.1334,-4.6751 8.5295,-7.7905c5.396,-3.1154 10.326,-4.6786 11.0114,-3.4915z"/>
  <path id="svg_10" fill="#D3D8B6" d="m30.61234,23.7621c0.4351,0.7537 -1.9892,2.9679 -5.4147,4.9456c-3.4256,1.9778 -6.5553,2.9701 -6.9904,2.2165c-0.4351,-0.7536 1.9892,-2.9678 5.4147,-4.9456c3.4256,-1.9777 6.5553,-2.9701 6.9904,-2.2165z"/>
  <path stroke="#1f2937" stroke-width="0.95" id="svg_11" fill="#1f2937" d="m70.92934,32.4828l3.35565,0l0,12.3649c0,1.1523 0.32234,2.083 0.9669,2.7921c0.6636,0.6914 1.64002,1.0371 2.92915,1.0371c1.27031,0 2.2372,-0.3457 2.9007,-1.0371c0.6636,-0.7091 0.99535,-1.6398 0.99535,-2.7921l0,-12.3649l3.35576,0l0,12.4979c0,1.0282 -0.1801,1.95 -0.54029,2.7655c-0.34127,0.7977 -0.83428,1.4802 -1.47885,2.0475c-0.64457,0.5673 -1.41244,1.0016 -2.30351,1.303c-0.89108,0.3013 -1.86739,0.452 -2.92915,0.452c-1.06165,0 -2.03807,-0.1507 -2.92915,-0.452c-0.89108,-0.3014 -1.66836,-0.7357 -2.33196,-1.303c-0.64457,-0.5673 -1.13748,-1.2498 -1.47875,-2.0475c-0.34127,-0.8155 -0.51184,-1.7373 -0.51184,-2.7655l0,-12.4979zm26.96658,11.1683c0,-0.9041 -0.19902,-1.5866 -0.59719,-2.0475c-0.39816,-0.4609 -1.01427,-0.6914 -1.84857,-0.6914c-0.56874,0 -1.07117,0.1153 -1.5072,0.3457c-0.43602,0.2128 -0.77729,0.5318 -1.0238,0.9573c-0.2464,0.4077 -0.36972,0.8864 -0.36972,1.4359l0,7.4456l-3.07128,0l0,-12.232l3.07128,0l0,1.888c0.41709,-0.7268 0.94797,-1.2675 1.59254,-1.6221c0.6636,-0.3545 1.4504,-0.5318 2.36041,-0.5318c1.47885,0 2.60692,0.4255 3.38421,1.2764c0.77771,0.8332 1.16593,1.9855 1.16593,3.4568l0,7.7647l-3.15662,0l0,-7.4456l0.00001,0zm6.96498,-9.6526c0,-0.4964 0.1893,-0.9129 0.56895,-1.2498c0.39784,-0.3368 0.85343,-0.5052 1.36463,-0.5052c0.54971,0 1.0053,0.1684 1.3657,0.5052c0.37859,0.3369 0.56895,0.7534 0.56895,1.2498c0,0.4787 -0.19037,0.8953 -0.56895,1.2498c-0.36041,0.3368 -0.816,0.5052 -1.3657,0.5052c-0.5112,0 -0.96679,-0.1684 -1.36463,-0.5052c-0.37966,-0.3545 -0.56895,-0.7711 -0.56895,-1.2498zm0.42671,4.8662l3.01481,0l0,12.232l-3.01481,0l0,-12.232zm9.28827,6.116c0,0.78 0.18074,1.4625 0.54115,2.0475c0.35934,0.5673 0.84381,1.0194 1.45019,1.3562c0.62563,0.3368 1.31758,0.5052 2.07582,0.5052c0.62563,0 1.22239,-0.0886 1.79135,-0.2659c0.56895,-0.1773 1.0716,-0.4255 1.50794,-0.7446c0.43527,-0.3191 0.75825,-0.6736 0.96679,-1.0636l0,3.1643c-0.45559,0.4255 -1.0716,0.7623 -1.8491,1.0105c-0.7775,0.2482 -1.62986,0.3723 -2.55922,0.3723c-1.34645,0 -2.55922,-0.2659 -3.64045,-0.7977c-1.0609,-0.5496 -1.90471,-1.303 -2.53034,-2.2603c-0.60745,-0.975 -0.91011,-2.083 -0.91011,-3.3239c0,-1.2587 0.30266,-2.3666 0.91011,-3.3239c0.62563,-0.9573 1.46944,-1.7018 2.53034,-2.2337c1.08122,-0.5495 2.294,-0.8243 3.64045,-0.8243c0.92936,0 1.78172,0.1241 2.55922,0.3723c0.7775,0.2482 1.39351,0.585 1.8491,1.0104l0,3.1644c-0.20855,-0.4077 -0.54115,-0.7623 -0.99567,-1.0636c-0.43634,-0.3191 -0.93899,-0.5673 -1.50688,-0.7446c-0.56895,-0.1773 -1.15716,-0.2659 -1.76354,-0.2659c-0.75825,0 -1.45019,0.1684 -2.07582,0.5052c-0.60638,0.3368 -1.09085,0.7978 -1.45019,1.3828c-0.36041,0.585 -0.54115,1.2586 -0.54115,2.0209zm10.73204,0c0,-1.2587 0.30373,-2.3666 0.91011,-3.3239c0.62563,-0.9573 1.46944,-1.7018 2.53141,-2.2337c1.06197,-0.5495 2.26512,-0.8243 3.61157,-0.8243c1.34645,0 2.53997,0.2748 3.5827,0.8243c1.06197,0.5319 1.90578,1.2764 2.53141,2.2337c0.62563,0.9573 0.93899,2.0652 0.93899,3.3239c0,1.2409 -0.31335,2.3489 -0.93899,3.3239c-0.62563,0.9573 -1.46944,1.7107 -2.53141,2.2603c-1.04272,0.5318 -2.23624,0.7977 -3.5827,0.7977c-1.34645,0 -2.5496,-0.2659 -3.61157,-0.7977c-1.06197,-0.5496 -1.90578,-1.303 -2.53141,-2.2603c-0.60638,-0.975 -0.91011,-2.083 -0.91011,-3.3239zm3.15705,0c0,0.7623 0.17004,1.4359 0.51227,2.0209c0.34116,0.5673 0.8053,1.0194 1.39351,1.3562c0.58713,0.3191 1.25127,0.4786 1.99027,0.4786c0.72081,0 1.37425,-0.1595 1.96247,-0.4786c0.60638,-0.3368 1.08015,-0.7889 1.42131,-1.3562c0.34116,-0.585 0.51227,-1.2586 0.51227,-2.0209c0,-0.7623 -0.17112,-1.4359 -0.51227,-2.0209c-0.34116,-0.585 -0.81493,-1.0371 -1.42131,-1.3562c-0.5882,-0.3191 -1.24164,-0.4786 -1.96247,-0.4786c-0.73899,0 -1.40313,0.1595 -1.99027,0.4786c-0.5882,0.3191 -1.05235,0.7712 -1.39351,1.3562c-0.34223,0.585 -0.51227,1.2586 -0.51227,2.0209zm16.90604,-6.116l0,12.232l-3.04369,0l0,-12.232l3.04369,0zm3.89605,3.058c-0.28447,-0.2127 -0.54971,-0.3723 -0.79675,-0.4786c-0.24598,-0.1064 -0.55932,-0.1596 -0.93792,-0.1596c-0.51227,0 -0.92936,0.1241 -1.25127,0.3723c-0.32298,0.2482 -0.55932,0.5939 -0.7112,1.037c-0.13261,0.4255 -0.19892,0.9307 -0.19892,1.5158l-1.02454,-0.5585c0,-0.975 0.19037,-1.8348 0.56895,-2.5793c0.39891,-0.7623 0.90048,-1.365 1.50794,-1.8082c0.62563,-0.4432 1.26945,-0.6648 1.93359,-0.6648c0.47377,0 0.91973,0.0709 1.33683,0.2127c0.41709,0.1241 0.76787,0.3546 1.05128,0.6914l-1.478,2.4198zm12.00363,1.7284c0,-0.9041 -0.19892,-1.5866 -0.59676,-2.0475c-0.39784,-0.4609 -1.01385,-0.6914 -1.84803,-0.6914c-0.56895,0 -1.0716,0.1153 -1.50794,0.3457c-0.43634,0.2128 -0.7775,0.5318 -1.02348,0.9573c-0.24704,0.4077 -0.37004,0.8864 -0.37004,1.4359l0,7.4456l-3.0715,0l0,-12.232l3.0715,0l0,1.888c0.41709,-0.7268 0.94861,-1.2675 1.59243,-1.6221c0.66414,-0.3545 1.45019,-0.5318 2.3603,-0.5318c1.47907,0 2.60735,0.4255 3.38485,1.2764c0.7775,0.8332 1.16572,1.9855 1.16572,3.4568l0,7.7647l-3.15705,0l0,-7.4456l0.00001,0z"/>
 </g>

</svg>