<svg width="171" height="84" xmlns="http://www.w3.org/2000/svg" fill="none">

 <g>
  <title>Layer 1</title>
  <circle id="svg_1" fill="#7D9ED4" r="25.8297" cy="42.0265" cx="34.3544"/>
  <path id="svg_2" fill="#CFC9EF" d="m15.4128,8.62633l50.4344,44.73147l-36.9129,21.3117l-13.5215,-66.04317z"/>
  <path id="svg_3" fill="#FACAD5" d="m15.4122,8.62665l37.2044,33.02005l-27.2104,15.7099l-9.994,-48.72995z"/>
  <path id="svg_4" fill="#9B90DA" d="m65.9844,53.6068c1.2947,2.2425 -5.9189,8.8312 -16.1121,14.7162c-10.1933,5.8851 -19.5061,8.8379 -20.8008,6.5954c-1.2947,-2.2425 5.919,-8.8312 16.1122,-14.7162c10.1932,-5.8851 19.506,-8.8379 20.8007,-6.5954z"/>
  <path id="svg_5" fill="#F7AEBF" d="m52.701,41.7512c0.9556,1.655 -4.3685,6.5179 -11.8916,10.8613c-7.5232,4.3435 -14.3965,6.5229 -15.3521,4.8678c-0.9555,-1.6551 4.3685,-6.5179 11.8917,-10.8614c7.5231,-4.3435 14.3965,-6.5228 15.352,-4.8677z"/>
  <path id="svg_6" fill="#F7AEBF" d="m52.701,41.7512c0.9556,1.655 -4.3685,6.5179 -11.8916,10.8613c-7.5232,4.3435 -14.3965,6.5229 -15.3521,4.8678c-0.9555,-1.6551 4.3685,-6.5179 11.8917,-10.8614c7.5231,-4.3435 14.3965,-6.5228 15.352,-4.8677z"/>
  <path id="svg_7" fill="#FFEEE4" d="m15.5053,8.78304l26.6415,23.55056l-19.5669,11.297l-7.0746,-34.84756z"/>
  <path id="svg_8" fill="#E8ECDC" d="m15.3444,8.5249l16.9741,15.0952l-12.3884,7.1525l-4.5857,-22.2477z"/>
  <path id="svg_9" fill="#FDC9AC" d="m42.1871,32.4441c0.6854,1.1872 -3.1333,4.6751 -8.5294,7.7905c-5.3961,3.1154 -10.3261,4.6786 -11.0115,3.4915c-0.6854,-1.1872 3.1334,-4.6751 8.5295,-7.7905c5.396,-3.1154 10.326,-4.6786 11.0114,-3.4915z"/>
  <path id="svg_10" fill="#D3D8B6" d="m32.4213,23.7621c0.4351,0.7537 -1.9892,2.9679 -5.4147,4.9456c-3.4256,1.9778 -6.5553,2.9701 -6.9904,2.2165c-0.4351,-0.7536 1.9892,-2.9678 5.4147,-4.9456c3.4256,-1.9777 6.5553,-2.9701 6.9904,-2.2165z"/>
  <path stroke-width="1.3" id="svg_11" stroke="#1f2937" fill="#1f2937" d="m72.3383,32.4828l3.1377,0l0,12.3649c0,1.1523 0.3014,2.083 0.9041,2.7921c0.6205,0.6914 1.5335,1.0371 2.7389,1.0371c1.1878,0 2.0919,-0.3457 2.7123,-1.0371c0.6205,-0.7091 0.9307,-1.6398 0.9307,-2.7921l0,-12.3649l3.1378,0l0,12.4979c0,1.0282 -0.1684,1.95 -0.5052,2.7655c-0.3191,0.7977 -0.7801,1.4802 -1.3828,2.0475c-0.6027,0.5673 -1.3207,1.0016 -2.1539,1.303c-0.8332,0.3013 -1.7461,0.452 -2.7389,0.452c-0.9927,0 -1.9057,-0.1507 -2.7389,-0.452c-0.8332,-0.3014 -1.56,-0.7357 -2.1805,-1.303c-0.6027,-0.5673 -1.0636,-1.2498 -1.3827,-2.0475c-0.3191,-0.8155 -0.4786,-1.7373 -0.4786,-2.7655l0,-12.4979zm25.2151,11.1683c0,-0.9041 -0.1861,-1.5866 -0.5584,-2.0475c-0.3723,-0.4609 -0.9484,-0.6914 -1.7285,-0.6914c-0.5318,0 -1.0016,0.1153 -1.4093,0.3457c-0.4077,0.2128 -0.7268,0.5318 -0.9573,0.9573c-0.2304,0.4077 -0.3457,0.8864 -0.3457,1.4359l0,7.4456l-2.8718,0l0,-12.232l2.8718,0l0,1.888c0.39,-0.7268 0.8864,-1.2675 1.4891,-1.6221c0.6205,-0.3545 1.3562,-0.5318 2.2071,-0.5318c1.3828,0 2.4376,0.4255 3.1644,1.2764c0.7272,0.8332 1.0902,1.9855 1.0902,3.4568l0,7.7647l-2.9516,0l0,-7.4456zm6.5126,-9.6526c0,-0.4964 0.177,-0.9129 0.532,-1.2498c0.372,-0.3368 0.798,-0.5052 1.276,-0.5052c0.514,0 0.94,0.1684 1.277,0.5052c0.354,0.3369 0.532,0.7534 0.532,1.2498c0,0.4787 -0.178,0.8953 -0.532,1.2498c-0.337,0.3368 -0.763,0.5052 -1.277,0.5052c-0.478,0 -0.904,-0.1684 -1.276,-0.5052c-0.355,-0.3545 -0.532,-0.7711 -0.532,-1.2498zm0.399,4.8662l2.819,0l0,12.232l-2.819,0l0,-12.232zm8.685,6.116c0,0.78 0.169,1.4625 0.506,2.0475c0.336,0.5673 0.789,1.0194 1.356,1.3562c0.585,0.3368 1.232,0.5052 1.941,0.5052c0.585,0 1.143,-0.0886 1.675,-0.2659c0.532,-0.1773 1.002,-0.4255 1.41,-0.7446c0.407,-0.3191 0.709,-0.6736 0.904,-1.0636l0,3.1643c-0.426,0.4255 -1.002,0.7623 -1.729,1.0105c-0.727,0.2482 -1.524,0.3723 -2.393,0.3723c-1.259,0 -2.393,-0.2659 -3.404,-0.7977c-0.992,-0.5496 -1.781,-1.303 -2.366,-2.2603c-0.568,-0.975 -0.851,-2.083 -0.851,-3.3239c0,-1.2587 0.283,-2.3666 0.851,-3.3239c0.585,-0.9573 1.374,-1.7018 2.366,-2.2337c1.011,-0.5495 2.145,-0.8243 3.404,-0.8243c0.869,0 1.666,0.1241 2.393,0.3723c0.727,0.2482 1.303,0.585 1.729,1.0104l0,3.1644c-0.195,-0.4077 -0.506,-0.7623 -0.931,-1.0636c-0.408,-0.3191 -0.878,-0.5673 -1.409,-0.7446c-0.532,-0.1773 -1.082,-0.2659 -1.649,-0.2659c-0.709,0 -1.356,0.1684 -1.941,0.5052c-0.567,0.3368 -1.02,0.7978 -1.356,1.3828c-0.337,0.585 -0.506,1.2586 -0.506,2.0209zm10.035,0c0,-1.2587 0.284,-2.3666 0.851,-3.3239c0.585,-0.9573 1.374,-1.7018 2.367,-2.2337c0.993,-0.5495 2.118,-0.8243 3.377,-0.8243c1.259,0 2.375,0.2748 3.35,0.8243c0.993,0.5319 1.782,1.2764 2.367,2.2337c0.585,0.9573 0.878,2.0652 0.878,3.3239c0,1.2409 -0.293,2.3489 -0.878,3.3239c-0.585,0.9573 -1.374,1.7107 -2.367,2.2603c-0.975,0.5318 -2.091,0.7977 -3.35,0.7977c-1.259,0 -2.384,-0.2659 -3.377,-0.7977c-0.993,-0.5496 -1.782,-1.303 -2.367,-2.2603c-0.567,-0.975 -0.851,-2.083 -0.851,-3.3239zm2.952,0c0,0.7623 0.159,1.4359 0.479,2.0209c0.319,0.5673 0.753,1.0194 1.303,1.3562c0.549,0.3191 1.17,0.4786 1.861,0.4786c0.674,0 1.285,-0.1595 1.835,-0.4786c0.567,-0.3368 1.01,-0.7889 1.329,-1.3562c0.319,-0.585 0.479,-1.2586 0.479,-2.0209c0,-0.7623 -0.16,-1.4359 -0.479,-2.0209c-0.319,-0.585 -0.762,-1.0371 -1.329,-1.3562c-0.55,-0.3191 -1.161,-0.4786 -1.835,-0.4786c-0.691,0 -1.312,0.1595 -1.861,0.4786c-0.55,0.3191 -0.984,0.7712 -1.303,1.3562c-0.32,0.585 -0.479,1.2586 -0.479,2.0209zm15.808,-6.116l0,12.232l-2.846,0l0,-12.232l2.846,0zm3.643,3.058c-0.266,-0.2127 -0.514,-0.3723 -0.745,-0.4786c-0.23,-0.1064 -0.523,-0.1596 -0.877,-0.1596c-0.479,0 -0.869,0.1241 -1.17,0.3723c-0.302,0.2482 -0.523,0.5939 -0.665,1.037c-0.124,0.4255 -0.186,0.9307 -0.186,1.5158l-0.958,-0.5585c0,-0.975 0.178,-1.8348 0.532,-2.5793c0.373,-0.7623 0.842,-1.365 1.41,-1.8082c0.585,-0.4432 1.187,-0.6648 1.808,-0.6648c0.443,0 0.86,0.0709 1.25,0.2127c0.39,0.1241 0.718,0.3546 0.983,0.6914l-1.382,2.4198zm11.224,1.7284c0,-0.9041 -0.186,-1.5866 -0.558,-2.0475c-0.372,-0.4609 -0.948,-0.6914 -1.728,-0.6914c-0.532,0 -1.002,0.1153 -1.41,0.3457c-0.408,0.2128 -0.727,0.5318 -0.957,0.9573c-0.231,0.4077 -0.346,0.8864 -0.346,1.4359l0,7.4456l-2.872,0l0,-12.232l2.872,0l0,1.888c0.39,-0.7268 0.887,-1.2675 1.489,-1.6221c0.621,-0.3545 1.356,-0.5318 2.207,-0.5318c1.383,0 2.438,0.4255 3.165,1.2764c0.727,0.8332 1.09,1.9855 1.09,3.4568l0,7.7647l-2.952,0l0,-7.4456z"/>
 </g>
</svg>