<svg width="49" height="49" viewBox="0 0 49 49" fill="none" xmlns="http://www.w3.org/2000/svg">
<path opacity="0.1" fill-rule="evenodd" clip-rule="evenodd" d="M24.3576 47.7154C37.2577 47.7154 47.7153 37.2578 47.7153 24.3578C47.7153 11.4577 37.2577 1.00012 24.3576 1.00012C11.4576 1.00012 1 11.4577 1 24.3578C1 37.2578 11.4576 47.7154 24.3576 47.7154Z" stroke="#0A142F" stroke-width="2.00208"/>
<path d="M17.5318 17.2072C20.3034 17.0691 22.4591 17 23.999 17C25.539 17 27.6955 17.0691 30.4685 17.2073C31.9695 17.2821 33.1836 18.4559 33.3088 19.9536C33.4356 21.4706 33.499 22.8067 33.499 23.9619C33.499 25.1313 33.434 26.486 33.3041 28.0261C33.1793 29.5052 31.9916 30.6706 30.5105 30.7675C28.1398 30.9225 25.9693 31 23.999 31C22.029 31 19.8593 30.9225 17.4899 30.7675C16.0093 30.6707 14.8218 29.506 14.6964 28.0275C14.5648 26.4759 14.499 25.1207 14.499 23.9619C14.499 22.817 14.5633 21.4805 14.6917 19.9522C14.8176 18.4551 16.0314 17.282 17.5318 17.2072Z" fill="#333333" stroke="#333333" stroke-width="2" stroke-linejoin="round"/>
<path d="M22.5 21.8046V26.203C22.5 26.4397 22.6919 26.6316 22.9285 26.6316C23.0126 26.6316 23.0948 26.6069 23.1649 26.5606L26.4637 24.3803C26.6612 24.2498 26.7154 23.9839 26.5849 23.7864C26.5537 23.7392 26.5135 23.6987 26.4665 23.6671L23.1677 21.449C22.9713 21.3169 22.705 21.3691 22.5729 21.5655C22.5254 21.6362 22.5 21.7194 22.5 21.8046Z" fill="white" stroke="white" stroke-width="2" stroke-linejoin="round"/>
</svg>
