<svg width="696" height="302" viewBox="0 0 696 302" fill="none" xmlns="http://www.w3.org/2000/svg">
<g filter="url(#filter0_d_2386_1136)">
<path fill-rule="evenodd" clip-rule="evenodd" d="M22.667 0H672.667C683.717 0 692.667 8.95431 692.667 20V275C692.667 286.046 683.717 295 672.667 295H22.667C11.621 295 2.66699 286.046 2.66699 275V20C2.66699 8.95431 11.621 0 22.667 0Z" fill="#FFF6EB"/>
</g>
<path d="M534.281 133H252.167C250.786 133 249.667 134.119 249.667 135.5C249.667 136.881 250.786 138 252.167 138H534.281C535.662 138 536.781 136.881 536.781 135.5C536.781 134.119 535.662 133 534.281 133Z" fill="white"/>
<path opacity="0.31" d="M158.667 102.022C158.667 139.983 129.192 171.043 93.167 171.043C77.884 171.043 64.056 165.675 52.775 156.472L80.067 127.713L81.159 130.78H92.439L88.436 118.51L96.078 110.457V130.78H117.911C133.923 130.78 145.203 120.427 145.203 101.638C145.203 87.8338 139.381 78.6309 129.92 74.7964L144.475 59.4582C153.573 71.3453 158.667 85.9165 158.667 102.022ZM93.167 33C107.723 33 121.55 37.9849 132.467 46.8043L140.109 38.7518C141.564 37.218 144.475 37.218 145.931 38.7518C147.386 40.2856 147.386 43.3532 145.931 44.887L37.856 158.389C36.4 159.923 33.489 159.923 32.034 158.389C30.578 156.855 30.578 153.788 32.034 152.254L40.767 143.051C32.398 131.931 27.667 117.36 27.667 102.022C27.667 64.0597 57.142 33 93.167 33ZM73.517 72.8791H58.598L39.311 130.78H50.228L54.231 117.743H64.784L73.517 108.54H57.142L65.511 81.6985L73.881 108.54L82.25 99.7208L73.517 72.8791ZM134.65 102.022C134.65 115.442 127.373 121.194 116.092 121.194H106.631V99.7208L122.642 82.8489C130.284 84.3827 134.65 91.2848 134.65 102.022ZM107.723 72.8791H96.442V84.7661L107.723 72.8791Z" fill="#FED6A5"/>
<defs>
<filter id="filter0_d_2386_1136" x="0.000325441" y="0" width="695.333" height="301.667" filterUnits="userSpaceOnUse" color-interpolation-filters="sRGB">
<feFlood flood-opacity="0" result="BackgroundImageFix"/>
<feColorMatrix in="SourceAlpha" type="matrix" values="0 0 0 0 0 0 0 0 0 0 0 0 0 0 0 0 0 0 127 0" result="hardAlpha"/>
<feOffset dy="4"/>
<feGaussianBlur stdDeviation="1.33333"/>
<feColorMatrix type="matrix" values="0 0 0 0 0 0 0 0 0 0 0 0 0 0 0 0 0 0 0.25 0"/>
<feBlend mode="normal" in2="BackgroundImageFix" result="effect1_dropShadow_2386_1136"/>
<feBlend mode="normal" in="SourceGraphic" in2="effect1_dropShadow_2386_1136" result="shape"/>
</filter>
</defs>
</svg>
