<svg xmlns="http://www.w3.org/2000/svg" version="1.1" xmlns:xlink="http://www.w3.org/1999/xlink" xmlns:svgjs="http://svgjs.dev/svgjs" width="659" height="622"><svg width="659" height="622" viewBox="0 0 659 622" fill="none" xmlns="http://www.w3.org/2000/svg">
<g clip-path="url(#clip0_796_29361)">
<circle cx="301.893" cy="310.852" r="238.893" fill="#7D9ED4"></circle>
<path d="M126.707 1.93808L593.163 415.65L251.764 612.756L126.707 1.93808Z" fill="#CFC9EF"></path>
<path d="M126.701 1.94101L470.796 307.336L219.134 452.633L126.701 1.94101Z" fill="#FACAD5"></path>
<path d="M594.432 417.952C606.407 438.693 539.689 499.63 445.414 554.059C351.14 608.489 265.008 635.799 253.033 615.059C241.059 594.319 307.776 533.381 402.051 478.952C496.326 424.522 582.458 397.212 594.432 417.952Z" fill="#9B90DA"></path>
<path d="M471.577 308.302C480.415 323.61 431.174 368.585 361.594 408.757C292.014 448.929 228.444 469.085 219.606 453.778C210.769 438.47 260.01 393.495 329.589 353.323C399.169 313.151 462.739 292.995 471.577 308.302Z" fill="#F7AEBF"></path>
<path d="M471.577 308.302C480.415 323.61 431.174 368.585 361.594 408.757C292.014 448.929 228.444 469.085 219.606 453.778C210.769 438.47 260.01 393.495 329.589 353.323C399.169 313.151 462.739 292.995 471.577 308.302Z" fill="#F7AEBF"></path>
<path d="M127.562 3.38745L373.964 221.202L192.994 325.685L127.562 3.38745Z" fill="#FFEEE4"></path>
<path d="M126.074 1L283.064 140.612L168.486 206.764L126.074 1Z" fill="#E8ECDC"></path>
<path d="M374.336 222.224C380.676 233.203 345.357 265.462 295.45 294.276C245.542 323.09 199.946 337.547 193.607 326.568C187.268 315.588 222.587 283.329 272.494 254.515C322.401 225.702 367.997 211.244 374.336 222.224Z" fill="#FDC9AC"></path>
<path d="M284.014 141.926C288.038 148.896 265.617 169.375 233.935 187.666C202.253 205.958 173.307 215.136 169.283 208.166C165.259 201.196 187.68 180.717 219.362 162.425C251.044 144.134 279.99 134.956 284.014 141.926Z" fill="#D3D8B6"></path>
</g>
<defs>
<clipPath id="SvgjsClipPath1001">
<rect width="659" height="621" fill="white" transform="translate(0 0.806763)"></rect>
</clipPath>
</defs>
</svg><style>@media (prefers-color-scheme: light) { :root { filter: none; } }
@media (prefers-color-scheme: dark) { :root { filter: none; } }
</style></svg>